<svg width="32" height="32" viewBox="0 0 32 32" fill="none" xmlns="http://www.w3.org/2000/svg">
<path d="M14.6133 18.9867L12.16 16.5334L14.6133 14.08L13.8666 13.3334L10.6666 16.5334L13.8666 19.7334L14.6133 18.9867ZM17.3866 18.9867L19.84 16.5334L17.3866 14.08L18.1333 13.3334L21.3333 16.5334L18.1333 19.7334L17.3866 18.9867Z" fill="#768293"/>
<path d="M5.33329 9.33337V12C5.33329 12.7334 4.73329 13.3334 3.99996 13.3334H2.66663V18.6667H3.99996C4.73329 18.6667 5.33329 19.2667 5.33329 20V22.6667C5.33329 24.8667 7.13329 26.6667 9.33329 26.6667H13.3333V24H9.33329C8.59996 24 7.99996 23.4 7.99996 22.6667V20C7.99996 18.2667 6.87996 16.7734 5.33329 16.2267V15.7734C6.87996 15.2267 7.99996 13.7334 7.99996 12V9.33337C7.99996 8.60004 8.59996 8.00004 9.33329 8.00004H13.3333V5.33337H9.33329C7.13329 5.33337 5.33329 7.13337 5.33329 9.33337ZM28 13.3334C27.2666 13.3334 26.6666 12.7334 26.6666 12V9.33337C26.6666 7.13337 24.8666 5.33337 22.6666 5.33337H18.6666V8.00004H22.6666C23.4 8.00004 24 8.60004 24 9.33337V12C24 13.7334 25.12 15.2267 26.6666 15.7734V16.2267C25.12 16.7734 24 18.2534 24 20V22.6667C24 23.4 23.4 24 22.6666 24H18.6666V26.6667H22.6666C24.8666 26.6667 26.6666 24.8667 26.6666 22.6667V20C26.6666 19.2667 27.2666 18.6667 28 18.6667H29.3333V13.3334H28Z" fill="#3E3E3E"/>
</svg>
