<svg width="33" height="32" viewBox="0 0 33 32" fill="none" xmlns="http://www.w3.org/2000/svg">
<path d="M29.8333 12V9.33333H27.1666V6.66667C27.1666 5.2 25.9666 4 24.5 4H5.83329C4.36663 4 3.16663 5.2 3.16663 6.66667V25.3333C3.16663 26.8 4.36663 28 5.83329 28H24.5C25.9666 28 27.1666 26.8 27.1666 25.3333V22.6667H29.8333V20H27.1666V17.3333H29.8333V14.6667H27.1666V12H29.8333ZM24.5 25.3333H5.83329V6.66667H24.5V25.3333ZM8.49996 17.3333H15.1666V22.6667H8.49996V17.3333ZM16.5 9.33333H21.8333V13.3333H16.5V9.33333ZM8.49996 9.33333H15.1666V16H8.49996V9.33333ZM16.5 14.6667H21.8333V22.6667H16.5V14.6667Z" fill="#3E3E3E"/>
<rect x="8.5" y="9.33337" width="6.66667" height="6.66667" fill="#768293"/>
<rect x="8.5" y="17.3334" width="6.66667" height="5.33333" fill="#768293"/>
<rect x="16.5" y="9.33337" width="5.33333" height="4" fill="#768293"/>
<rect x="16.5" y="14.6666" width="5.33333" height="8" fill="#768293"/>
</svg>
